<mxfile host="app.diagrams.net" modified="2021-09-10T03:08:12.062Z" agent="5.0 (Windows)" etag="-D2a-UVNPTBOaVyrmeIu" version="15.1.2" type="github">
  <diagram id="7hwt8iUyQ6iaTFeVRyE0" name="Page-1">
    <mxGraphModel dx="2889" dy="1112" grid="1" gridSize="10" guides="1" tooltips="1" connect="1" arrows="1" fold="1" page="1" pageScale="1" pageWidth="827" pageHeight="1169" math="0" shadow="0">
      <root>
        <mxCell id="0" />
        <mxCell id="1" parent="0" />
        <mxCell id="JGfc-qZrsNJnJbXg5H5I-1" value="&lt;div&gt;&amp;nbsp; SERVER&lt;/div&gt;" style="rounded=0;whiteSpace=wrap;html=1;fontSize=18;fillColor=#fa6800;strokeColor=#C73500;fontColor=#000000;" vertex="1" parent="1">
          <mxGeometry x="-460" y="250" width="263" height="60" as="geometry" />
        </mxCell>
        <mxCell id="JGfc-qZrsNJnJbXg5H5I-2" value="CLIENT" style="rounded=0;whiteSpace=wrap;html=1;fontSize=18;fillColor=#d5e8d4;strokeColor=#82b366;gradientColor=#97d077;" vertex="1" parent="1">
          <mxGeometry x="730" y="250" width="260" height="60" as="geometry" />
        </mxCell>
        <mxCell id="JGfc-qZrsNJnJbXg5H5I-3" value="&lt;div style=&quot;font-size: 25px;&quot;&gt;音视频编解码传输流程图（RTSP传输）&lt;/div&gt;" style="rounded=0;whiteSpace=wrap;html=1;fillColor=#d5e8d4;strokeColor=#82b366;strokeWidth=3;fontSize=25;fontStyle=1;horizontal=1;verticalAlign=middle;" vertex="1" parent="1">
          <mxGeometry x="36" y="110" width="490" height="140" as="geometry" />
        </mxCell>
        <mxCell id="JGfc-qZrsNJnJbXg5H5I-4" value="" style="rounded=1;whiteSpace=wrap;html=1;fontSize=18;strokeWidth=3;" vertex="1" parent="1">
          <mxGeometry x="-760" y="335" width="820" height="365" as="geometry" />
        </mxCell>
        <mxCell id="JGfc-qZrsNJnJbXg5H5I-5" style="edgeStyle=none;rounded=0;orthogonalLoop=1;jettySize=auto;html=1;exitX=1;exitY=0.5;exitDx=0;exitDy=0;entryX=0;entryY=0.5;entryDx=0;entryDy=0;fontSize=16;fillColor=#008a00;strokeColor=#005700;strokeWidth=2;" edge="1" parent="1" source="JGfc-qZrsNJnJbXg5H5I-6" target="JGfc-qZrsNJnJbXg5H5I-13">
          <mxGeometry relative="1" as="geometry" />
        </mxCell>
        <mxCell id="JGfc-qZrsNJnJbXg5H5I-6" value="YUV或者RGB等图像数据" style="rounded=1;whiteSpace=wrap;html=1;fontSize=18;strokeWidth=3;fillColor=#76608a;strokeColor=#432D57;fontColor=#ffffff;" vertex="1" parent="1">
          <mxGeometry x="-580" y="400" width="170" height="60" as="geometry" />
        </mxCell>
        <mxCell id="JGfc-qZrsNJnJbXg5H5I-7" style="edgeStyle=none;rounded=0;orthogonalLoop=1;jettySize=auto;html=1;exitX=1;exitY=0.5;exitDx=0;exitDy=0;fontSize=16;fillColor=#008a00;strokeColor=#005700;strokeWidth=3;" edge="1" parent="1" source="JGfc-qZrsNJnJbXg5H5I-8" target="JGfc-qZrsNJnJbXg5H5I-15">
          <mxGeometry relative="1" as="geometry" />
        </mxCell>
        <mxCell id="JGfc-qZrsNJnJbXg5H5I-8" value="PCM等音频数据" style="rounded=1;whiteSpace=wrap;html=1;fontSize=16;strokeWidth=3;fillColor=#76608a;strokeColor=#432D57;fontColor=#ffffff;" vertex="1" parent="1">
          <mxGeometry x="-580" y="500" width="170" height="60" as="geometry" />
        </mxCell>
        <mxCell id="JGfc-qZrsNJnJbXg5H5I-9" value="" style="shape=mxgraph.signs.tech.video_camera;html=1;pointerEvents=1;fillColor=#000000;strokeColor=none;verticalLabelPosition=bottom;verticalAlign=top;align=center;fontSize=16;rotation=-180;" vertex="1" parent="1">
          <mxGeometry x="-720" y="500" width="98" height="40" as="geometry" />
        </mxCell>
        <mxCell id="JGfc-qZrsNJnJbXg5H5I-10" value="" style="shape=mxgraph.signs.tech.video_camera;html=1;pointerEvents=1;fillColor=#000000;strokeColor=none;verticalLabelPosition=bottom;verticalAlign=top;align=center;fontSize=16;rotation=-180;" vertex="1" parent="1">
          <mxGeometry x="-720" y="420" width="98" height="40" as="geometry" />
        </mxCell>
        <mxCell id="JGfc-qZrsNJnJbXg5H5I-12" style="edgeStyle=none;shape=flexArrow;rounded=0;orthogonalLoop=1;jettySize=auto;html=1;exitX=1;exitY=0.5;exitDx=0;exitDy=0;fontSize=18;fillColor=#008a00;strokeColor=#005700;" edge="1" parent="1" source="JGfc-qZrsNJnJbXg5H5I-13" target="JGfc-qZrsNJnJbXg5H5I-16">
          <mxGeometry relative="1" as="geometry" />
        </mxCell>
        <mxCell id="JGfc-qZrsNJnJbXg5H5I-13" value="H264或者H265等格式编码" style="rounded=1;whiteSpace=wrap;html=1;fontSize=16;strokeWidth=3;fillColor=#76608a;strokeColor=#432D57;fontColor=#ffffff;" vertex="1" parent="1">
          <mxGeometry x="-390" y="400" width="200" height="60" as="geometry" />
        </mxCell>
        <mxCell id="JGfc-qZrsNJnJbXg5H5I-14" value="" style="edgeStyle=none;shape=flexArrow;rounded=0;orthogonalLoop=1;jettySize=auto;html=1;fontSize=18;fillColor=#008a00;strokeColor=#005700;" edge="1" parent="1" source="JGfc-qZrsNJnJbXg5H5I-15" target="JGfc-qZrsNJnJbXg5H5I-16">
          <mxGeometry relative="1" as="geometry" />
        </mxCell>
        <mxCell id="JGfc-qZrsNJnJbXg5H5I-15" value="MP3或者AAC等格式编码" style="rounded=1;whiteSpace=wrap;html=1;fontSize=16;strokeWidth=3;fillColor=#76608a;strokeColor=#432D57;fontColor=#ffffff;" vertex="1" parent="1">
          <mxGeometry x="-390" y="495" width="200" height="60" as="geometry" />
        </mxCell>
        <mxCell id="JGfc-qZrsNJnJbXg5H5I-16" value="&lt;div&gt;&lt;br&gt;&lt;/div&gt;&lt;div&gt;FLV/TS等封装格式数据&lt;/div&gt;&lt;div&gt;&lt;br&gt;&lt;/div&gt;" style="rounded=1;whiteSpace=wrap;html=1;fontSize=16;strokeWidth=3;fillColor=#fff2cc;strokeColor=#d6b656;" vertex="1" parent="1">
          <mxGeometry x="-150" y="422.5" width="200" height="115" as="geometry" />
        </mxCell>
        <mxCell id="JGfc-qZrsNJnJbXg5H5I-17" value="&lt;div&gt;原始数据&lt;/div&gt;&lt;div&gt;(很大)&lt;br&gt;&lt;/div&gt;" style="text;html=1;strokeColor=none;fillColor=none;align=center;verticalAlign=middle;whiteSpace=wrap;rounded=0;fontSize=18;" vertex="1" parent="1">
          <mxGeometry x="-540" y="357.5" width="80" height="27.5" as="geometry" />
        </mxCell>
        <mxCell id="JGfc-qZrsNJnJbXg5H5I-18" value="&lt;div&gt;编码&lt;/div&gt;&lt;div&gt;(可大大减小数据大小)&lt;/div&gt;" style="text;html=1;strokeColor=none;fillColor=none;align=center;verticalAlign=middle;whiteSpace=wrap;rounded=0;fontSize=18;" vertex="1" parent="1">
          <mxGeometry x="-410" y="345" width="240" height="45" as="geometry" />
        </mxCell>
        <mxCell id="JGfc-qZrsNJnJbXg5H5I-19" value="封装打包" style="text;html=1;strokeColor=#d6b656;fillColor=#fff2cc;align=center;verticalAlign=middle;whiteSpace=wrap;rounded=0;fontSize=18;" vertex="1" parent="1">
          <mxGeometry x="-100" y="365" width="100" height="35" as="geometry" />
        </mxCell>
        <mxCell id="JGfc-qZrsNJnJbXg5H5I-20" value="" style="shape=flexArrow;endArrow=classic;html=1;fontSize=18;exitX=1;exitY=0.389;exitDx=0;exitDy=0;exitPerimeter=0;fillColor=#008a00;strokeColor=#005700;strokeWidth=2;startArrow=none;" edge="1" parent="1" source="JGfc-qZrsNJnJbXg5H5I-22">
          <mxGeometry width="50" height="50" relative="1" as="geometry">
            <mxPoint x="330" y="590" as="sourcePoint" />
            <mxPoint x="478" y="477" as="targetPoint" />
          </mxGeometry>
        </mxCell>
        <mxCell id="JGfc-qZrsNJnJbXg5H5I-21" value="" style="rounded=1;whiteSpace=wrap;html=1;fontSize=18;strokeWidth=3;" vertex="1" parent="1">
          <mxGeometry x="480" y="335" width="700" height="365" as="geometry" />
        </mxCell>
        <mxCell id="JGfc-qZrsNJnJbXg5H5I-23" value="&lt;div&gt;LIVE 555&lt;/div&gt;&lt;div&gt;不支持 MP4 等格式，需要开发附加FFMPEG&lt;/div&gt;" style="rounded=1;whiteSpace=wrap;html=1;fontSize=18;strokeWidth=3;fillColor=#fff2cc;strokeColor=#d6b656;" vertex="1" parent="1">
          <mxGeometry x="-170" y="585" width="930" height="55" as="geometry" />
        </mxCell>
        <mxCell id="JGfc-qZrsNJnJbXg5H5I-24" value="&lt;div align=&quot;center&quot;&gt;将RTP包还原为封装格式数据&lt;/div&gt;&lt;div align=&quot;left&quot;&gt;图像数据(H264/H265等) + 编码的音频数据(AAC等)&lt;br&gt;&lt;/div&gt;" style="rounded=1;whiteSpace=wrap;html=1;fontSize=16;strokeWidth=3;fillColor=#fff2cc;strokeColor=#d6b656;" vertex="1" parent="1">
          <mxGeometry x="500" y="395" width="260" height="155" as="geometry" />
        </mxCell>
        <mxCell id="JGfc-qZrsNJnJbXg5H5I-25" value="解包" style="text;html=1;strokeColor=#d6b656;fillColor=#fff2cc;align=center;verticalAlign=middle;whiteSpace=wrap;rounded=0;fontSize=18;" vertex="1" parent="1">
          <mxGeometry x="590" y="355" width="90" height="25" as="geometry" />
        </mxCell>
        <mxCell id="JGfc-qZrsNJnJbXg5H5I-27" value="解码" style="text;html=1;align=center;verticalAlign=middle;whiteSpace=wrap;rounded=0;fontSize=18;fillColor=#1ba1e2;strokeColor=#006EAF;fontColor=#ffffff;" vertex="1" parent="1">
          <mxGeometry x="850" y="355" width="80" height="20" as="geometry" />
        </mxCell>
        <mxCell id="JGfc-qZrsNJnJbXg5H5I-28" value="FFMPEG" style="rounded=1;whiteSpace=wrap;html=1;fontSize=18;strokeWidth=3;fillColor=#1ba1e2;strokeColor=#006EAF;fontColor=#ffffff;" vertex="1" parent="1">
          <mxGeometry x="790" y="585" width="220" height="55" as="geometry" />
        </mxCell>
        <mxCell id="JGfc-qZrsNJnJbXg5H5I-29" value="&lt;div&gt;图像数据H264解码为YUV数据&lt;/div&gt;&lt;div&gt;音频数据AAC解码为WWC原始数据&lt;br&gt;&lt;/div&gt;" style="rounded=1;whiteSpace=wrap;html=1;fontSize=16;strokeWidth=3;fillColor=#1ba1e2;strokeColor=#006EAF;fontColor=#ffffff;" vertex="1" parent="1">
          <mxGeometry x="780" y="390" width="230" height="155" as="geometry" />
        </mxCell>
        <mxCell id="JGfc-qZrsNJnJbXg5H5I-30" value="IPC" style="rounded=1;whiteSpace=wrap;html=1;fontSize=18;strokeWidth=3;fillColor=#76608a;strokeColor=#432D57;fontColor=#ffffff;" vertex="1" parent="1">
          <mxGeometry x="-720" y="585" width="540" height="60" as="geometry" />
        </mxCell>
        <mxCell id="JGfc-qZrsNJnJbXg5H5I-31" style="edgeStyle=none;shape=flexArrow;rounded=0;orthogonalLoop=1;jettySize=auto;html=1;exitX=1;exitY=0.5;exitDx=0;exitDy=0;fontSize=18;" edge="1" parent="1" source="JGfc-qZrsNJnJbXg5H5I-30" target="JGfc-qZrsNJnJbXg5H5I-30">
          <mxGeometry relative="1" as="geometry" />
        </mxCell>
        <mxCell id="JGfc-qZrsNJnJbXg5H5I-32" value="&lt;div&gt;后续处理&lt;/div&gt;&lt;div&gt;播放或格式转换等&lt;br&gt;&lt;/div&gt;" style="rounded=1;whiteSpace=wrap;html=1;fontSize=18;strokeWidth=3;fillColor=#e51400;strokeColor=#B20000;fontColor=#ffffff;" vertex="1" parent="1">
          <mxGeometry x="1020" y="390" width="150" height="160" as="geometry" />
        </mxCell>
        <mxCell id="JGfc-qZrsNJnJbXg5H5I-33" value="&lt;div align=&quot;left&quot;&gt;PCM格式：用一个8bit或者16bit的数值来描述一个样本Pulse Code Modulation)也被称为脉冲编码调制&lt;/div&gt;&lt;div align=&quot;left&quot;&gt; YUV格式：用亮度信息（Y）与色彩信息（UV）来描述一个像素点&lt;/div&gt;&lt;div align=&quot;left&quot;&gt;RGB格式：用红绿蓝来描述一个像素点&lt;/div&gt;" style="rounded=1;whiteSpace=wrap;html=1;verticalAlign=top;fontSize=19;fillColor=#e1d5e7;strokeColor=#9673a6;" vertex="1" parent="1">
          <mxGeometry x="-725" y="720" width="870" height="90" as="geometry" />
        </mxCell>
        <mxCell id="JGfc-qZrsNJnJbXg5H5I-35" value="模拟信号&amp;gt;数字信号" style="text;html=1;strokeColor=none;fillColor=none;align=center;verticalAlign=middle;whiteSpace=wrap;rounded=0;fontSize=18;" vertex="1" parent="1">
          <mxGeometry x="-790" y="355" width="240" height="45" as="geometry" />
        </mxCell>
        <mxCell id="JGfc-qZrsNJnJbXg5H5I-36" value="" style="shape=image;verticalLabelPosition=bottom;labelBackgroundColor=#ffffff;verticalAlign=top;aspect=fixed;imageAspect=0;image=data:image/png,iVBORw0KGgoAAAANSUhEUgAAAoUAAAJkCAYAAABnMVvzAAAgAElEQVR4nO29P5arvLetTXP2cOLhltxTgce4Dg4t+KIv25Edkd1GVFTDyY/sxifdQUUVuB/VAOsG/LEQEgiLBQv7CZ7xvruMMZ5rWppIArL7/dcAAAAAwHuTrX0AAAAAALA+2f3+a/7nf/4HAAAAAN6IYChcO51uFbTTDfVBO5ADj0AqeEiX9oRCAVFBD9QH7UAOPAKp4CFd2hMKBUQFPVAftAM58Aikgod0aU8oFBAV9EB90A7kwCOQCh7SpT2hUEBU0AP1QTuQA49AKnhIl/aEQgFRQQ/UB+1ADjwCqeAhXdoTCgVEBT1QH7QDOfAIpIKHdGlPKBQQFfRAfdAO5MAjkAoe0qU9oVBAVNAD9UE7kAOPQCp4SJf2hEIBUUEP1AftQA48AqngIV3aEwoFRAU9UB+0AznwCKSCh3RpTygUEBX0QH3QDuTAI5AKHtKlPaFQQFTQA/VBO5ADj0AqeEiX9oRCAVFBD9QH7UAOPAKp4CFd2hMKBUQFPVAftAM58Aikgod0aU8oFBAV9EB90A7kwCOQCh7SpT2hUEBU0AP1QTuQA49AKnhIl/aEQgFRQQ/UB+1ADjwCqeAhXdoTCgVEBT1QH7QDOfAIpIKHdGlPKBQQFfRAfdAO5MAjkAoe0qU9oVBAVNAD9UE7kAOPQCp4SJf2hEIBUUEP1AftQI538sit2Jss/1r9OF6Nd/KQNhYJhWWeTfjhfJk8y0yW7U1x+zX328UcDhdzUyBWiqiTKE9dvW4Xc8hOprx/m+KQmbyM2MftYg6jmn+ZPDuZ0v7cLOvQ+yxPPco88piUkFKfW7E3ma1ZR7vas4H32RqVeX9b3996XlhZ79kb65jfd8jLg+8N/FY8evp1rd7v/h6yLDOH4tt5r/U7ul3MwfOeLLPbQOd3Z32+79jK3N3X3hRF/7fa/Yz1eGWP9Pky+cDvHo+s56G+Jn287ai3/t+mOHja/WCt/PV7vDZ+bL3js/uYIQ9F+XGa9rOGwmAnGixg9wttLXDMol3HlJWBHhp8mdzTyPV06jWS36Y4uGbxhELrPV7te42s/3g0k1yfOqQXxX7kR/3Q+xH4xhsEO3T4akAojHiv9zXfb8DG/j34t70V+0d92s+wamp9ZqhOj32Eg2dFt910Tyx6lCcVbeXLemSwI3Zo9otHVvOQ9yS783qoHa00d9vh/sngQ9MsP0UEPbsP6NfN3X//JHVvirIZILKPYd4+WDQU3kY7Tbco7g8y3IFqNvbz2rkNwN4cBhuEx1nftFDoaWgOF3N7IhSGa5x2tqKzPiHc4O7o5dElbqQwPFqwvVAYf3bcC8cdLw/sp/alz5N56atF06m6+9yb4mb9XizPh0Nh7EiB3YAPhVT3/f1tXb+MdYJ4JMUj9nFGnDA04JGFPRT/XTvtqGeWbJiH7v72eGykcGIotPrm3pKF8hQOrDNpP0MofISOUOflX4vRNbX3RxY9XL9hQ9cGaBsuSye/Jk+OFN6cs47BUNhvaPMidBY+NiKz1fr0zyD9Z5UenQ8Xc7OmIPxTG8776no8PQ2iSrsAEdN7we8ZeK/7G2lGT/qNt6fhLk91cHg+FPrrVb3ejuSUJ5MdTiaPHQVqj8vWxj72oU5oK7+vjXik3r5TD7ct7X0+HlnaQ8u0mw9NxwbBhvrS4ffUn9H26VVdgzNVicsDREJhmXfPyMY60aBIrcEd4ZWviZh1+nhkyqLRMeYH4A0dU6ePfZ1mL6i/aii0/N3+OEfWmNWaVds8RgDGRwr9+74Vp3r0eJ3Gfd2pwbGptKw9mep1+LlvnZBvpMUzfewNheE2qwgGC/v4m3/H/E4CbaYbSpS0i6/pkYj99trm/4NHVvTQ1Oljf6h75I7HdH534Kq/jV1Py1+dUDhhpNAaCbT3410qMGk9bLz2MheaHC6mLPb9YNKhCheH3uLf7ZzhzKJdO0JUryGIGCnsMTpSaDc+9d+dYejQejb3DNUf/PXWazZvj005WMP97dSUNd0/GNrrkwFfI1/kmcnzddYGzTWDEKNb2MueOgz8Rjr6u+thfaM3sSOFAezGvDout4O4dIJnng8vweh1Vu0+x0Yktvj70u2RuXh3j8h6qNF4eigM5Q5vKLxdzOGwb0eIe6HQWWb1dCgMHP9jn9b+thIKm85zrDGtRkGaNVfNWh/rv+7IllJmnXq/xYRCT8PlaSR7U1/56TEsXa8pHA6FXyY/7LvbNu/tNKa6Q/xStzuoGiUrIPvWfgwsds9zp9b1+6u6rHOBzyzaBRuuwNrMdrR8fI3tofgOrxdrPrv1ZrfRz4v6N3O7mEN+eTT+znoe7+/Pd/GAr8O3R/7rz8jzZuqyu97U9k+eWx1RsNHXMUL/qh55vDYSWL2/SzyytIemTh9PHiksT1U7vMj0cf+kaJOhcFpRvkxuN8SNyM4PZvAqICWkLbSubyUwafp4eihsg8XAiJ8bCtuRy84iaN/084uHQm9I6Hq0t66pPauPufr4P6Yo3Cmu/v5HrzTUqJ3tpd70+cCykjlGgXw+bUYFiy/nN/No/Jt2rAkT3jWF1rqxvDft43Yc3cBRFEMdvqPXBjr81/SIfz99PFO2eGQVD4mPFDrb3O+/5naLmD72DARMGSnst//qQ+FjpOtwGJ5qsb/044zHt07NFvh9LjRpDTT7SOG3KXL/4uduCLRGKw//n/n/m46zMXTgrPlQXF46FNo18P0wg2sx3RGO28Xk+akKjJ4fshviu4E+UHfl2nU961wNH2rMAmGto+2UDt8+htE1V1Xo8LVlnRMCa51Y6fw3WKf6t1RGXMHf7fAv/ilW56R6q78v1R6ZOFKIR9bz0BJrCvu3sao9OnYrpKFZPM/xdS8+eixl6Y42930+l/az3pImLhQ2IaV7dj60aFPzxSb6Q6HnfZ6r5/pTHL+RNxPXfe/C9Ol9u6Pqn7h0w7Tta6uTc6bdC88IeFOv5krHfsdQjyovqPW8U+/WCeTQ6P/Y+thnO3zXy97PeUzVdEcI/7f5X97O39qX1al0PtcKFk195xkF0nHC/NIemTRS2F9XhkeW89AaI4XNfnsDAPfu54RPMMPHV+3X/U7WGtyZMpHy+xSGhdfMklcfZ+6NUUenJv2h0Dct77v6KfpKwFcNhVZ47t6WwhMKrVvKuGsDMzuMt8Ex63VUh/w0+gSZJU+S5unwrYasuT9mqHNsNBqZGnR1G25nrDoEQ2H9m/JdYOL5ffo+v3Pfu9y6MrZdYvG4SGC8w++uJxrz5mZ/X9o98syaQjyyioeeWVM4foHrSChsrp84NP7yhbi4e1z6b48UvhjxNnoh7/ParzBSOCT4vClYt6E993ec8TYCwZHCUIhrG0DHiIEnqow2sEpIfsxdHfS6jb9/wXH+1xlZ8AURZwG6/SOPuiflJrSzT1yGbsZrn8D8Z3CUyPac27iHRoEGfdr81gJT/YfO++rfas8D/raqF9yddam99WxOAAqPAnWv1tWw3vqlPTJppBCPLO8hu/bPjhQ6JyT33+7v39fuN/UILD9paxXoz1s/dtqZwHKCvLmHceD1xNC/zNXHbwba6Yb6oB3IgUcgFTykS3tCoYCooAfqg3YgBx6BVPCQLu0JhQKigh6oD9qBHHgEUsFDurQnFAqICnqgPmgHcuARSAUP6dKeUCggKuiB+qAdyIFHIBU8pEt7QqGAqKAH6oN2IAcegVTwkC7tCYUCooIeqA/agRx4BFLBQ7q0JxQKiAp6oD5oB3LgEUgFD+nSnlAoICrogfqgHciBRyCVdA+Fno7223me9BZu5K1Be0KhgKigB+qDdiAHHoFUlgiFt/v4U0/eEULhQqKCHqgP2oEceARSmTMU+p5z3UX/s6DX1p5QKCAq6IH6oB3IgUcglSQPtc+FDj3r2X4+NcRoTygUEBX0QH3QDuTAI5DKrNPHt4s5tCFxb4rbl8nr0cFbsTdZ/rX699UEoXAhUUEP1AftQA48AqnMHgrzL+tvTSgcWHf4xhAKFxIV9EB90A7kwCOQimworP9bPi44Wfv7aoJQuJCooAfqg3YgBx6BVGSnj39NmVf/zsv1v6s2CIULiQp6oD5oB3LgEUhlrlCY5917Ed7qexM+1hIyhRyjPaFQQFTQA/VBO5ADj0AqqR5qbkNTBcJvUxysK5GbkcM2FHJLmjHtCYUCooIeqA/agRx4BFJJviVNe0Xxl8kzayTwdjGHzFpXeOP2NDHaEwoFRAU9UB+0AznwCKQi4yFfQMy4JU2E9oRCAVFBD9QH7UAOPAKp4CFd2hMKBUQFPVAftAM58Aikgod0aU8oFBAV9EB90A7kwCOQCh7SpT2hUEBU0AP1QTuQA49AKnhIl/aEQgFRQQ/UB+1ADjwCqeAhXdoTCgVEBT1QH7QDOfAIpIKHdGlPKBQQFfRAfdAO5MAjkAoe0qU9oVBAVNAD9UE7kAOPQCp4SJf2hEIBUUEP1AftQA48AqngIV3aEwoFRAU9UB+0AznwCKSCh3RpTygUEBX0QH3QDuTAI5AKHtKlPaFQQFTQA/VBO5ADj0AqeEiX9oRCAVFBD9QH7UAOPAKp4CFd2hMKBUQFPVAftAM58Aikgod0aU8oFBAV9EB90A7kwCOQCh7SpT2hUEBU0AP1QTuQA49AKnhIl/aEQgFRQQ/UB+1ADjwCqeAhXdoTCgVEBT1QH7QDOfAIpIKHdGlPKBQQFfRAfdAO5MAjkAoe0qU9oVBAVNAD9UE7kAOPQCp4SJf2hEIBUUEP1AftQA48AqngIV3at6EQAAAAAN6HYChcO7FuFbTTDfVBO5ADj0AqeEiX9oRCAVFBD9QH7UAOPAKp4CFd2hMKBUQFPVAftAM58Aikgod0aU8oFBAV9EB90A7kwCOQCh7SpT2hUEBU0AP1QTuQA49AKnhIl/aEQgFRQQ/UB+1ADjwCqeAhXdoTCgVEBT1QH7QDOfAIpIKHdGlPKBQQFfRAfdAO5MAjkAoe0qU9oVBAVNAD9UE7kAOPQCp4SJf2hEIBUUEP1AftQA48AqngIV3aEwoFRAU9UB+0AznwCKSCh3RpTygUEBX0QH3QDuTAI5AKHtKlPaFQQFTQA/VBO5ADj0AqeEiX9oRCAVFBD9QH7UAOPAKp4CFd2hMKBUQFPVAftAM58Aikgod0aU8oFBAV9EB90A7kwCOQCh7SpT2hUEBU0AP1QTuQA49AKnhIl/aEQgFRQQ/UB+1ADjwCqeAhXdoTCgVEBT1QH7QDOfAIpIKHdGlPKBQQFfRAfdAO5MAjkAoe0qU9oVBAVNAD9UE7kAOPQCp4SJf2hEIBUUEP1AftQA48AqngIV3aEwoFRAU9pNSnzDOTZfEcim//vm4XczhczG3o824Xc8i/nnuvQu06x+/V62TKKfspT933+7S6f5vi4Hut/nuWmbwM7DtK4y+TO9vdin3gWIb4NsXhZMrg8W4HPIJHVHgoBdc3ozi+dNvups2+Xcwh25vi9tg22Kd0PPNtikP3fUtqTygUEFWEn79ml/0x55/1v3OQ68fD5MfP9Y9HpD5VIx0MgD7ePRT2jv/L5L4Of6hxDnaKj87c7tBvxb7zfm9HX1PmsfV0OvxQmBmtV9PhPz5/6Pg0g0fwiAoPzc3oSUDXUw/2pihtP3+Z3AqGZe4Je47/470mo/2sofDn/MdkWWZ253+dv1+P4ZDQvmYHiiwzx6sCYzwpajQ/f80uy0yWfZhr7/VPc8wyk2kPgs7xduqmIMjO3uCUp4Ef7JfJJ51xWj/+Tigc2M+CAXHxDv/uG1VxR17cs2j/WfWt2AfrNH0E+D/9DiC/1H/rjwQciu+B0a8nRpoVg0fwyKoeavvQLlU/1PShYdys0hI9MvzrOaHvjxaP+upwMbdnBhwEtJ8xFNah4Phhst1f89MrnC8cfJqj/XcFIWItQ7vmbAL2ZkLhz1+zc8OtgnrOGwq/TZHv/SN6QwyO9vXPODsjAu80UljTPVPuNrD9s+jpHX74syZ8l/JUBZPbxRzq71LmQ6NVbs2XmR7CI3hEO+l9aLePqfpOz0DLlP5oJBS6o8zjVLUcGiks8tAgwbLazxcKr00Y9IwY3f+Z8y4QfOwAqSBEzCFqNM33PX84Jq70Op4tPYLmt4zXaNnZrz0SWe23t71dQ9/+Rt/rnpH9MecfZ3vf52mvj8OtOFVTA7OGQmub/MuEpyXsEYhl1het1eF3p86sDr/pZHvb9kdTojr80bVE3WN8dASeNUUT6+LtHDYIHsEjq3rIlxlCOWJyKNxH1MwX3sPefas1hdfjI/T5pot7AdAXFN81FP44WjQB+yccCq/Hfsi6Huvw14xAdmpQhzTrb5069bT/Z847J0yG3huqnYJ6zhYKm2njJrwFzyQjQp2voRk7M/R2dhvQzvu9xjp8Z9vRtT2PBrTp6INn8s2x1J308FIA+xi/TJ6fqmNpvlM7/bc3xe27N1U4dAyvskYMj+CRVT0UGizxLVebGgqzkynbpTyBkO/hUHx1T1iy8XWEXa8uV3e5UOiKHTOVqHS6cQ5Rn9Lt2owW1qOEV+f1gYAYZf6xvw3tM2Z/rxwK7R9w3djfbo9OJXi1ojfEVY1M7z1W53EYCZVrLkKejFcHX4c/fT1m1o6s+jv84FRMPZ1XjE4BuQv9H+Gjqr3vbL76Ht0a9b9v7NSldvAIHlnVQ4NrCn3bPjd97G3r22UB/ZG9ZpTXruHolHO9BvUl1hRGjQLeu6NL3jSvIEQsb+jm+3rWZA6GQt/FKQM6et/TXdPpTke39Yt47+uGQqex9i0q7g3/V/imf/rrk6yO7hVHCr0X5sw9CjQyNdip2WPacbjTtY/x2xT5xdw8a9fipvc933eFeuIRPKKR2aePrx/GuxY/eU2heyWxv7Z5WfkmLx5rSZt9eP3U1LnzO+hefb6k9jOEQs/asQbvmrUPc/WuO5xYNCXMaegmlLW6LDlSOLSPdx0p9NxnKjTN678Xmd2IjNxvrNcpOZ+70VDonwLrdoCjHe9gh+/b11d3CmaoZpGjQL5j8X63SaNe1t82GgDwCB5Z1UPePsYZsBjcNsCUq49D7bVnRmh0yYLlmyVGDGVCYWjUKliswBXKU4umhHkN/WmOoQtvJq8pdHUcWRd4/RhY3/nkmsJQ+N9EfQKLfSdfFfYYpRj8kff263z+FkNhsGHtd9LhNTQjHb5vbc7NOUMf6PDj14v1jyWtw+82/FudKsQjeGRVD6109XGX/n0wq1FEe0Cg/n93yrnoeyH+CnUZ7ZNDYdQ9CK2/he5l+L73KYwc8fNsez0GRmaD+51yBbH/CvLgKHDgMztT0hu/+vh+/50QCq2G4nAxt/YqxsCUQMSFJkt3CLOPsrZ0O8DBqyxHrtzud5See30JdvjxU4P2NnYHkZm8XHZxOR7BI5qYf03hhLXxIcZCYe9CE2daubkYMf9qPfF/i721Tysottst//QanmiykKigh2VDod2wD3V29tqm/wyOJNqdytIdQtoo6/gTItoGtdf4ds+8w52yZ92NrzGf0OF3jsvXcUePAtnfYWBtUHOysNK9KPEIHlkblX3ok9PH7rRvM13s+1t3/4ELEFfQnlAoICrogfqgHciBRyAVPKRLe0KhgKigB+qDdiAHHoFU8JAu7QmFAqKCHqgP2oEceARSwUO6tCcUCogKeqA+aAdy4BFIBQ/p0p5QKCAq6IH6oB3IgUcgFTykS3tCoYCooAfqg3YgBx6BVPCQLu0JhQKigh6oD9qBHHgEUsFDurQnFAqICnqgPmgHcuARSAUP6dKeUCggKuiB+qAdyIFHIJVkD7lPtGmfHjX2nGogFC4kKuiB+qAdyIFHIJU5PNR58syEZ0u/O4TChUSNZqPPe94SeBvtQA48AqmkeKh9ZJz92EErFD4eM0gojNWeUCgg6iSmPKQblq/PG4N2MAYegVTm8ZD1LG1CYZL2hEIBUSfhhsLm3+fhUcSf85/uGdLur/lRoIc28DbagRx4BFKZxUPlyTt9TCicrj2hUEDUSXhDYWay4+djm+uHybIPc63/fT32Q+D1+HgdZqzPG4N2MAYegVRmudCkHhxhpDBde0KhgKiTCI0U/gS2Ybp52fq8MWgHY+ARSCXNQ18mP1xMke9Ncfs1Zb43RdGEwm9THKq/EwrjtScUCog6iadCIaOCi9XnjUE7GAOPQCpJHiovjzB4a/5Wh8J2BPFkSkJhtPaEQgFRJ8FIoe76vDFoB2PgEUhlDg91QmHNrdib7LA3B8LgJO0JhQKiTmJqKLxHrCms1yVyixu8jXYgCR6BVERCYXkyWbY3xa07QvhYYwgh7QmFAqJG47tPYUQovN/rYBi6+phQOE993hy0gzHwCKQydyhs7l3Yv8DEXmMIIe0JhQKigh6oD9qBHHgEUpkvFFb3KszsR97dq9HBdvDEee3dIRQuJCrogfqgHciBRyAVPKRLe0KhgKigB+qDdiAHHoFU8JAu7QmFAqKCHqgP2oEceARSwUO6tCcUCogKeqA+aAdy4BFIBQ/p0p5QKCAq6IH6oB3IgUcgFTykS3tCoYCooAfqg3YgBx6BVPCQLu0JhQKigh6oD9qBHHgEUsFDurQnFAqICnqgPmgHcuARSAUP6dKeUCggKuiB+qAdyIFHIBU8pEt7QqGAqKAH6oN2IAcegVTwkC7tCYUCooIeqA/agRx4BFLBQ7q0JxQKiAp6oD5oB3LgEUgFD+nSnlAoICrogfqgHciBRyAVPKRLe0KhgKigB+qDdiAHHoFU8JAu7QmFAqKCHqgP2oEceARSwUO6tCcUCogKeqA+aAdy4BFIBQ/p0p5QKCAq6IH6oB3IgUcgFTykS3tCoYCooAfqg3YgBx6BVPCQLu0JhQKigh6oD9qBHHgEUsFDurQnFAqICnqgPmgHcuARSAUP6dKeUCggKuiB+qAdyIFHIBU8pEv7NhQCAAAAwPsQDIVrJ9atgna6oT5oB3LgEUgFD+nSnlAoICrogfqgHciBRyAVPKRLe0KhgKigB+qDdiAHHoFU8JAu7QmFAqKCHqgP2oEceARSwUO6tCcUCogKeqA+aAdy4BFIBQ/p0p5QKCAq6IH6oB3IgUcgFTykS3tCoYCooAfqg3YgBx6BVPCQLu0JhQKigh6oD9qBHHgEUsFDurQnFAqICnqgPmgHcuARSAUP6dKeUCggKuiB+qAdyIFHIBU8pEt7QqGAqKAH6oN2IAcegVTwkC7tCYUCooIeqA/agRx4BFLBQ7q0JxQKiAp6oD5oB3LgEUgFD+nSnlAoICrogfqgHciBRyAVPKRLe0KhgKigB+qDdiAHHoFU8JAu7QmFAqKCHqgP2oEceARSwUO6tCcUCogKeqA+aAdy4BFIBQ/p0p5QKCAq6IH6oB3IgUcgFTykS3tCoYCooAfqg3YgBx6BVPCQLu0JhQKigh6oD9qBHHgEUsFDurQnFAqICnqgPmgHcuARSAUP6dKeUCggKuiB+qAdyIFHIBU8pEt7QqGAqKCH2etzu5jD4WJuY9vkX8+9VxF4G8bAI5BKqofKPDNZFkde/pp7efK8tjd5vjeZ3W6XJ5NZ7XX85+xNcav34bb53s/OTJadTOl8r1uxN4fie+Szrc+aSXtC4cqGho3Vh1AI0IJHIJW5PFTmdeiL2PZW7Ntty/wRrB5B7NsUh27git2/vb/uPn+rUNjrG75MboXC5nNuxb4bZu+/s/chMqHw56/ZZZnJsg9z7b3+aY5ZZrLsjzn/2Nva+N5XcT0Ov64BNdp5X684Xn2faXH8XF1HffX5Mnnk2WdD+8PvhMKB/SgPiO/k7Z/zn+77dn/Nj4IaaGeuDr3Rf3f+l7BN46u4/uUVfNvdR31cCnyxvIf6IW6IUCi0X2/b83uzXWYOh8f7boUzslgHtqLenx3qsiyrtrVC4SNkhkOhewy+v82t/YyhsP9jfTS09o+oa9xQ8Hu89x1C4QzaxTQK149+g3T/Z867bTYm4vXxMXim9m2Kg2e6Iuq9+ngfb/8z553dzvwz591rnyyp8EhLFbaOx4+BMD6yjbf+ldeGgmaPTfn21wmU22zH5/HQyEm80+52A9veFLeB93dC3LcpDlWAK/PM5PmpDWlNYOuHzKpfaKeunwmFt4s5DA1EzKj9TKHwjzmfP5wAVzWsx7P1w/D9SDx/+zn/qX74P3/N7uVD4UzajTZA1T4nNZAvwLrTx/2QGGpwNPLO3m7bIAV10Mwsv69rE/Tq4Hedus2M9d+qb999pHCoXfYs5xkcKSxP3rDVhrjyZLL8ZPLDxdzaEcrHSOXg/kZCYW90sRlcKPrfb45RQ9lQ+OMYvPkRj/1I3L9drTPBdwmFc2g31ihsuNFYrT4xoc4X7EJrChu860r08c7evh4ZKRT3iKV144+Q7oPbzFn/rfp2w+37LKFwqE31vJYUCut+oTeK14Y950ITe9YoYqTQSxt6H+FzA6Hwtx4K/zDX5qzq+jvyI6mnaZoQeHXOzt4mFM6g3dj6lQ1oqa4+DcEGp5py6C0+bhuCvTmMhMo514eo0k6dt931ZuHtq2nC9/utLO4R1yftvx3tx7Zx+425jmdLvn3zUDgYkAKhsDN9XISuCs5Mc2VwN8TZU9LW9PDdDoVfJrfWGJZ5/TntLJK1XeDq4/4FJlsLhb51H70fUXhBbW+xt4XWaU8t2k0+K32BtSji9bHwLUYuczfUWetSGCncprevHy/9e1Dlkbtvmr4/pTq6jdiI24Z8++ahcOx2Mb4LNkIjhWXeX4PY/D0vH+1++77yZLLD3hza8Nj8/dKfTm7a/nbg4GTKgTWF7drC/GSFwsdU8wZC4SPYtWs+Jq2x8O1b9xm7Gu2eXb+y4cZEvD4dvkze3hOqnlYOBbvO9LHnqri3C4Xb8DYjhAt7pBlZ83XkbQiM2aYKbxJr87bg26ffowTp2xqFruL13/alCmiFPUpXU+b12r4mwN0u5pCfOusBfReahK5utoPk44X9P14AACAASURBVLXu+sJ2LeHN+W/ge82h/eyh8H7/NEf7rI5QuIx2z17ptuHGRLw+PR5rDAd/jL01hU4wfMNQqN3b12M2cmHJjMHjhUj3iKd973ljZBur/r4rhh9/i6jhxnyb9B4lLB4KrRtIuyHusW1/SrcZjbT31Q181XvysVBYnszjiufuCOF//bcdRuOOYW7tBULhwOuEQjntxtavDGz3yh3dfPfAqvU6XMytbVQCi4MjLjTRvJZwFu025W3f/e2cKbw51629ECkeGbqYp3ktZptBn9iBLqaGm/Jt6DO25dMlQuHQTadL+76CvaeP9Kd1hz/Pd9Prbuh0RyVLz/uq8Gf3L911jNXraU8zCWnPE00SQTvdzHPz6tCPr3tvq0Pxn8GRRHvdS+yd97ep3ethX/0KD7bkEWqokyQPBe7fF8S7VrB+xJ3vljZWMBwMhZ3H17mje80ta/qf31kLaQ042J9TBUlfH2QvaZpPe0JhIminG+qDdul8muNGp+ak2Y5HqKFWtuOh14NQuJCooAfqg3YgBx6BVPCQLu0JhQKigh6oD9qBHHgEUsFDurQnFAqICnqgPmgHcuARSAUP6dKeUCggKuiB+qAdyIFHIBU8pEt7QqGAqKAH6oN2IAcegVTwkC7tCYUCooIeqA/agRx4BFLBQ7q0JxQKiAp6oD5oB3LgEUgFD+nSnlAoICrogfqgHciBRyCVVA91bgA9iH2j5+pm0r6bUc/xTOGtQChcSFTQA/VBO5ADj0Aqc4TCmCdEeZ9B7HkcKaFwhqK8M2inG+qzknbtM1l9z2FtnjVsP0N24PmtCc+QDT03d4jr8cnnx4aehRvxzPef85/wM3t7ug0/H/fp41/FIxt+ysj1I+zFZ967xP5SPkOjh+5VKDwcHs83vhX7bti7XczhcDGFGwoDj4kjFM5QlHcG7XRDfVbSzgpobnh5BCA7FHbDQSfYxISHurPrdnL/zHk3LXQ8jm3JUPjPnHf25/0z550TaGs9xzrxpONfxSMbDoWp38H33iX2p0z3eUYKv01xsJ5RnJ/aYNeEvHaksPOc4v7ziqtnDYemnV8LQuFCooIeqM9K2jUdz/nDCShV4DmerY5prOOKClXhkbNYfs5/qhG6n79mt/BIYfBY6n9fj+PfL/n41/JIQJfe6Km1ratPyAfVyUVo9Lnxp/WaM5LmH7FNq+3gewmFk2mnj8uTyfKTyQ8Xc7t/m+KwN8Wt+a9n+rjGHRlkpHCGorwzaKcb6rOSdm3H43TU1w8ruMwUCufo5Jrjave3bii8Hu2Rwk9zzP6Y3c4fkGY7/tU8Erd9FRKb71VNpXdGTq/dE5Cuhk6QbEaye6Ox9vG4I7gze49QmO6hu72msLp4pA10t4s5ZFk7lfwIhY+g2P17BaFwhqK8M2inG+qzknZ2x9N21vUo4fV3JPTV06duBx5aUxgVgrrr8TqjRk6YSAuFoSsfnw0/j/3aAajaxtU38fjX9Ej09o/v1R0tdE4+vPv+NMehJQnPhCVC4boeutuh8MvkWWayw8Xc7r/GvcLYDn+P4PdljSz6f7sxF7FsFULhQqKCHqjPStp1Op56VOfojmYNXGgyOIIz9Fnu/sY7v/405fjFHFHHEXv8NteP/jEHA04VFGc7/lU94qM+ORi8AClwYhEM6MOjz66Wo/oRCtf10P0RCss8668dPOzNIWvWGlojgvXFJ7eyWXvYHT1suBV7QiGkiwp6oD4raed0PE1n2452zTo9HFhT+Gznt9L0cW+EsMUzVer9W+Lxr+wR33fu1NTzvZopYneqeFSDmJrMtc2U9xIKJ1PmmcmLSxv+7reLOeQnk9f/7l1ocv81VQg8mTwwpdxAKIRZRAU9UJ+VtOt1PJ/maC/an3vNoO/q41lDoSekxB5nYBTLPtbrcfiiBvf1cIBMOP7VPTL8mvc7txeG9PfTC4r2GkHfZ18/PCH0mVAYqXV0YJt5fymfIcBcN6+21wF2A+CXyTM7ANp/r0eF8wuhsIZQKCAq6IH6rKTdlKAXte1z9yl8qpPzhSp33d6U7zwaCt31jv6p7+CVtHMd/yoe8X1v/5XAu+OHJ+w6608duppZIXEgGEXfxy90z78YrafcQ3DO/aV8hhDL3LzaGgm0bknzeB9rChsIhQKigh6oD9rNQcwtYTQjdfzre8S6eEmBzhJaL+G9Nf0tGgo79yR83IuwD9PHDYRCAVFBD9QH7dKpbgmjZQ2WpuNf3SMrjnAto/US3lvX36t76I0hFC4kKuiB+qAdyLGuR+a5aTmsC+2MLu0JhQKigh6oD9qBHHgEUsFDurQnFAqICnqgPmgHcuARSAUP6dKeUCggKuiB+qAdyIFHIBU8pEt7QqGAqKAH6oN2IAcegVTwkC7tCYUCooIeqA/agRx4BFLBQ7q0JxQKiAp6oD5o1+erfQSW/fdbsTfZ4WJuqx/fdngNj+CHNXkND20TQuFCooIeqA/auTSPxbI5FJfHI686f/9e/Xg18woewQ/r8goe2iqEwoVEBT1Qn5W0i33km4fqGbdWZ+x9hFn3kWT2veqG3t+O/pQnk+Vf9XuqR1zl5a+5lyc6/qU84ql5+J6DvkcBxt20Gj/ohjZal/aEQgFRQQ/UZyXtng6F/8x5Z3f29bNtm2fWtvsIP9rsegy8/3YxB3s6sOnwO4Hg15R5/3FXIOCRlirwHY8f/hOA+nm9br1/zn+iblyNH3RDG61Le0KhgKigB+qzknYJI4UuP+c/nbAw9Tmtnfd3noU6ghUMQMAjDdcmDNbhsBP+5n9qCX7QBW20Lu0JhQKigh6oz0razRgKr0d7pLB6TutuZ3fYYyOPzkijizMyBAt5xKpvE/q6tX7OL8PgB23QRuvSnlAoICrogfqspF09xesfdYnv5Kv1YNb0n2fquNrG3Wfd+dtryG4Xc4gdFWJ0SN4jbT2t2v38NTu73tePiLWD7npD3/b4QSu00bq0JxQKiAp6oD4raTfHSOH1ox/2vO/3TTs+cKefB2GUaDmPeGvjTBfPPlKIH7RBG61Le0KhgKigB+qzknaJobA3QtjiC4DDodAebfLdfiQMFxiIesQevXNpQ1tV2znXFOIHXdBG69KeUCggKuiB+qykXWwo9EwHX4+h29D4X+8GyE9zdN7r3V95MpnnhsWMDC3tEU/wdz1SX33sBsO4q4/xg3Zoo3VpTygUEBX0QH1W0u7pUOi7H11/HeL1GF5D1n1tKGB6nmRBCFjMI72LSoZe861RjZwCxg+6oY3WpT2hUEBU0AP1QbtRnNuS5KWCY9oIL+kR/LAoL+mhjUAoXEhU0AP1QTuQA49AKnhIl/aEQgFRQQ/UB+1ADjwCqeAhXdoTCgVEBT1QH7QDOfAIpIKHdGlPKBQQFfRAfdAO5MAjkAoe0qU9oVBAVNAD9UE7kAOPQCp4SJf2hEIBUUEP1AftQA48AqngIV3aEwoFRAU9UB+0AznwCKSCh3RpTygUEBX0QH3QDuTAI5AKHtKlPaFQQFTQA/VBO5ADj0AqeEiX9oRCAVFBD9QH7UAOPAKp4CFd2hMKBUQFPVAftAM58Aikgod0aU8oFBAV9EB90A7kwCOQCh7SpT2hUEBU0AP1QTuQA49AKnhIl/aEQgFRQQ/UB+1ADjwCqeAhXdoTCgVEBT1QH7QDOfAIpIKHdGlPKBQQFfRAfdAO5MAjkAoe0qU9oVBAVNAD9UE7kAOPQCp4SJf2hEIBUUEP1AftQA48AqngIV3aEwoFRAU9UB+0AznwCKSCh3RpTygUEBX0QH3QDuTAI5AKHtKlPaFQQFTQA/VBO5ADj0AqeEiX9oRCAVFBD9QH7UAOPAKp4CFd2rehEAAAAADeh2AoXDuxbhW00w31QTuQA49AKnhIl/aEQgFRQQ/UB+1ADjwCqeAhXdoTCgVEBT1QH7QDOfAIpIKHdGlPKBQQFfRAfdAO5MAjkAoe0qU9oVBAVNAD9UE7kAOPQCp4SJf2hEIBUUEP1AftQA48AqngIV3aEwoFRAU9UB+0AznwCKSCh3RpTygUEBX0QH3QDuTAI5AKHtKlPaFQQFTQA/VBO5ADj0AqeEiX9oRCAVFBD9QH7UAOPAKp4CFd2hMKBUQFPVAftAM58Aikgod0aU8oFBAV9EB90A7kwCOQCh7SpT2hUEBU0AP1QTuQA49AKnhIl/aEQgFRQQ/UB+1ADjwCqeAhXdoTCgVEBT1QH7QDOfAIpIKHdGlPKBQQFfRAfdAO5MAjkAoe0qU9oVBAVNAD9UE7kAOPQCp4SJf2hEIBUUEP1AftQA48AqngIV3aEwoFRAU9UB+0AznwCKSCh3RpTygUEBX0QH3QDuTAI5AKHtKlPaFQQFTQA/VBO5ADj0AqeEiX9oRCAVFBD9QH7UAOPAKp4CFd2hMKBUQFPcxen9vFHA4XcxvbJv967r2KwNswBh6BVN7LQ9+mOJxMef819/Jksvyr/tveFDf7b+tpTygUEBX0QChUpB28HHgEUnk7DzX9QHkyWX55BML7r7kVe5OX62qfGAo/zTHLTDbA7vyv3f56HH59iyQZ+uev2WWZybIPcw1q+8ecf+xtbaz3eV+vOF59n2lx/FxdR331+TL5iLddDsV39d5OKBzYj/KA+Jbe/vlrds1xKaiBdvDIC3vp+hHWUYuHfMc46JW4zHI9hn0x9Noot4s5eD93b4rbtykO7t/rUUUh5EcKgz+Cf+a88wj589fsdn/Nj6SxhZmnUeyH45/zn9oUdqPY1bYK2bXZYxqg+gfU/XH/M+fdhhsuyfr4GBzt6/+oO2d97zRSuDVvdzqS1/094JEFPbL1ULjQd0huo91jHPNKzPcLfu9Pc5xDjyYc2jNKncGE784I4pLaLxQKq3QudaaxJumN4h9zPn84hq1C9PFs6enT9mfk9Q7VPrc+MrtofXxMmj72nfk5LLh+ZFHtturtV+jI8YgOj4xs9wi+/aD5c/5jst6ASf87dGff3JHTRlvrNWdkrf8ZT37XtTzkO8Yxr0R9P79f/HWZSHmqBgzyU2c0sCz2Vt9irT0UZP2RQu80wbaZpVH8cQx4/aiMN9boTWkU37SzS/N2RKjzBbvQmsKGhRcTr6LdVr39pr8TPCLgkYmfWYXE7jRnZyDl2g3P7jRmJ7A0o5r27FzveP6Z826kT37bUOgLgDOcWJSnx5Rw0w9Yo4ZlXo8OLjSrtGIofAgaOjPaKvM0ir/WD74+S77+jjR6tZ5uIxBaU/Pz1+xeMJSL1qchGOKq9YK9hcHtupG9OYyEynYdokJey9vuWqLA9oRCPDKXR6Z6yTnGbihxAol335/mODSd/oy3XyIUOl6J/X7e/c7Uh5Yn75ry5kKTW7FfpG9YORT2Cc7zb4jZGsXmzPD44TR0AwutB88CR2rzJmuo5vJ2ewbX+Zsb6qyLShgp3Ka3CYV4ZC6PRE5pD188EwjFwRA8PHLqTlmPjnptNhQOeGXC97NHY3/Of9IvyixPnppZ/cXtYg6Hk8kXWE8Y0n7VUPgKDfB8jeLjB9tOGcw6PRIY+n6BGojVp8OXybPmh1pPK4eC3diC4bcLhRvy9ov/HvDIgh4Z3K4KwZ3j8YxENaGkd8Xr2KhVzDHOtc2aHvId45RjHtu2HcGe77qIW7HvtP9l3p1tKvPl1pqvFwoDBr4eIxa6KmfORvF+/zRHW4+518z4rr578U5w3gtNHmsMB4f2e2sKnWD4hqFwM94OvsfTiQMeeXY7z2vdNYXdY/aNZvZvjWKtEfR99vXDE0KfCYXz/hZUh0LfCHYPe8BgjG9Tlt9VMPQtIWpHEt9gpNB3j8JXuD/evI3iwOtR2w6sqRnY7pU7unm8bV1w0tx01LpqrLd9xIUmmtcSzqLd1rzt/Qyrg766V8gCHhlZ/hQ8Jv+VwLvjh2fwZGA93N3TrzZ96kCYC2rjErpP4cy/BZn7FM4VCh8j2EGfBNYHhmn6k70pivpK5HodYRsGy9MiwZAnmiwkKuhhnptXh36c3RtTH4r/DI4klvlj2yXvWr+8dq/H9fjaJ0/PgkeksS68Wf1YKub+LWzdQ5MuCilP3va/zLN+sLxdzGHzN69+Q9BON9QH7dKZ6Ya1LwgeEUbdCPX8vwU8tB6EwoVEBT1QH7QDOfCIJO/xwAE8pEt7QqGAqKAH6oN2IAcegVTwkC7tCYUCooIeqA/agRx4BFLBQ7q0JxQKiAp6oD5oB3LgEUgFD+nSnlAoICrogfqgHciBRyAVPKRLe0KhgKigB+qDdiAHHoFU8JAu7QmFAqKCHqgP2oEceARSmd1Dz9zf73Yxh7EbULvbhJ5jLHxvQWntCYUCooIeqA/agRx4BFKR8NCt2E97ykhMKLw7N6r2Pq70y+SEwvcG7XRDfVbSrn3El+/Gu83jtuxHmA08PizhEWaxj9JsHmXVsvFnsm/CI75HlIUerTbn/lI+w+OZofsIjm/Tf/ScrptVK/eQ81SpUfIv03ls6QhNALSfVdzuxwqFZd48pYRQ+PagnW6oz0raWQHN7RAfASz8XNvqma515xjzLNO6o+928P/MeRfz9IV/5ryzO+L6ebMv8Gx21R4J1XbKs2uf3V/KZ9x/TRPmjsePgROIkW28nq1+H69+w+r5PDQhhLUh7tsUB+fRpZ6RQv/j66pAmZe/hEKIFxX0QH1W0q7pdM/uY7rqZ7merU55rNMe7cDnf/LDz/kPo4XSHnHrPPS3ufeXGgqvTdCrg59vtHFwm/d4WskiHrr/1usIx0f8KhJCYXnyTh8TCmFQVNAD9VlJu7bTdTq/pqMcC31TQmHyqE+f65GRQnGPhGq3gVB4PT48HfLK4DYCnt0qkm10mfsu/Jg+fXy//3aCJyOFMElU0AP1WUk7u9O7NqOF9Sjh9Xck9NXTt81I3diawp+/Zje6DstduxXevprefq91Xat4xPXJ0N/m3t+cn+Hz39g2V3cE/X2RaaPr4Oe9eOSZkcIvkx8upsir95X53hSFbzqaUPj2oJ1uqM9K2nU6Rc/aql4oHLhAZOpIYWd/Ezv+68f097wx7xgK+0sL+lPBo9swUjiLh3oXgIyyN8XtiVBYXh5hsHlfM1LYjiCeTEkoBLTTDfVZSTun02suLmnXVc06PRxYnzWx42WEcGGPhGqkOhTWo9i+wNGGwJhtqhMl1hTK3ZKmf5FIw5PTx3cnFFqflR320++NqABC4UKigh6oz0ra9TrdT3O0R07mXjPou5JzQsd/PY7dhoZOfHaPhGrkrVuk/kmhMOIzQksVen4e2eb+23rWd3X+42+v77t1QuH4SGFFd+SvFwrLUz366G7XrDHUDaFwIVFBD9RnJe2mBL2obZ+7T2FcZ+q7V5wz9cwasPk9MuUegjH6p96nMOIzhi5Aal6L2WbQ2/bJyRv4bvlQ6CEUCp0bVNuhsJm67l9g4gmdSiEULiQq6IH6oN0c2FeSwoOlPLKE/hprrPGY5mY+D9k3sp4aysJTyvaIXxUK/RexVFc610x5mooy7QmFAqKCHqgP2qXzaY5cFOBlGY8sob/GGms8pvmhndGlPaFQQFTQA/VBO5ADj0AqeEiX9oRCAVFBD9QH7UAOPAKp4CFd2hMKBUQFPVAftAM58Aikgod0aU8oFBAV9EB90A7kwCOQCh7SpT2hUEBU0AP1QTuQA49AKnhIl/aEQgFRQQ/UB+1ADjwCqeAhXdoTCgVEBT1QH7QDOfAIpIKHdGlPKBQQFfRAfdAO5MAjkAoe0qU9oVBAVNAD9UE7kAOPQCp4SJf2hEIBUUEP1Gcl7dpnuvqe29o8a9h+9rH7eCnrfQnPPg49g3aI6zF03DHf2fMEirFnO99/zc/5T/j5tz3dhp/r/PTxL+0RgDse0qY9oVBAVNAD9VlJOyugueHlEYDsUNgNTZ1gExGq7tePfki8/zPn3bTHhD2ObclQ+M+cd/bn/TPnnRNoaz2732/m41/aIwB3PKRNe0KhgKigB+qzknZNEDp/OAGlCjzHsxWUfKHpZ+T1DtU+QyNnsfyc/1QjdD9/zW7hkcLgsdT/vh7Hv1/y8S/tEYA7HtKmPaFQQFTQA/VZSbs2CDmB7fphBZeZQuEToatHc1zt/tYNhdejPVL4aY7ZH7Pb2VPjzv7mOP6lPQJwx0PatCcUCogKeqA+K2lnB6FrM1pYjxJef0dCXz192gk5A2sKo0JQdz1eZ/Ty6oxmJoVC/3H2QtwA1RRwf02lPXVcbePqm3j8S3sE4I6HtGlPKBQQFfRAfVbSrhP0qkB2PLqjWQMXmvTW000YKezsbzyM9S7yiLiYI+o4Yo/f5vrRP2bv+2tNrzMe/9IeAbjjIW3aEwoFRAU9UJ+VtHOCTBNc2tGuWaeHA2sKn51WXmn6uDdC2PIIgMN/Szz+pT0CcMdD2rQnFAqICnqgPitp1wtCn+Zo32Zl7jWDvquPZw2FVQgbHHmLDYWe6eDrMXQbGv/r4QAZOn6FHgG44yFt2hMKBUQFPVCflbSbEvSitn3uPoVPTZ/6QpW7bm/Kdx4Nhe56R//Ud3WbHs+ayJjj1+gRgDse0qY9oVBAVNAD9UG7OYi5Jcw7gkcgFTykS3tCoYCooAfqg3bpVLeESbrlzYuCRyAVPKRLe0KhgKigB+qDdiAHHoFU8JAu7QmFAqKCHqgP2oEceARSwUO6tCcUCogKeqA+aAdy4BFIBQ/p0p5QKCAq6IH6oB3IgUcgFTykS3tCoYCooAfqg3YgBx6BVPCQLu0JhQKigh6oD9qBHHgEUsFDurQnFAqICnqgPmgHcuARSAUP6dKeUCggKuiB+qAdyIFHIBU8pEt7QqGAqKAH6oN2IAcegVTwkC7tCYUCooIeqA/agRx4BFLBQ7q0JxQKiAp6oD5oB3LgEUgFD+nSnlAoICrogfqgHciBRyAVPKRLe0KhgKigB+qDdiAHHoFU8JAu7QmFAqKCHqgP2oEceARSwUO6tCcUCogKeqA+aAdy4BFIBQ/p0p5QKCAq6IH6oB3IgUcgFTykS3tCoYCooAfqg3YgBx6BVPCQLu0JhQKigh6oD9qBHHgEUsFDurQnFAqICnqgPmgHcuARSAUP6dKeUCggKuiB+qAdyIFHIBU8pEv7NhQCAAAAwPsQDIVrJ9atgna6oT5oB3LgEUgFD+nSnlAoICrogfqgHciBRyAVPKRLe0KhgKigB+qDdiAHHoFU8JAu7QmFAqKCHqgP2oEceARSwUO6tCcUCogKeqA+aAdy4BFIBQ/p0p5QKCAq6IH6oB3IgUcgFTykS3tCoYCooAfqg3YgBx6BVPCQLu0JhQKigh6oD9qBHHgEUsFDurQnFAqICnqgPmgHcuARSAUP6dKeUCggKuiB+qAdyIFHIBU8pEt7QqGAqKAH6oN2IAcegVTwkC7tCYUCooIeqA/agRx4BFLBQ7q0JxQKiAp6oD5oB3LgEUgFD+nSnlAoICrogfqgHciBRyAVPKRLe0KhgKigB+qDdiAHHoFU8JAu7QmFAqKCHqgP2oEceARSwUO6tCcUCogKeqA+aAdy4BFIBQ/p0p5QKCAq6IH6oB3IgUcgFTykS3tCoYCooAfqg3YgBx6BVPCQLu0JhQKigh6oD9qBHHgEUsFDurQnFAqICnqgPmgHcuARSAUP6dKeUCggKuiB+qAdyIFHIBU8pEt7QqGAqKCH2etzu5jD4WJuY9vkX8+9VxF4G8bAI5BKqofKPDNZFkde/pp7efK8tjd5vjeZ3W6XJ5NZ7XX85+xNcav34bb53s/OTJadTOl8r1uxN4fie+Szrc+aSXtC4cqGfoqfv2aX/THnn5m3fUEIhYq0g5cDj0Aqc3mozOvQF7Htrdi325b5I1g9gti3KQ7dwBW7f3t/3X3+VqGw1zd8mdwKhc3n3Ip9N8zef2fvQ2RC4c9fs/Mm2DqIBELJ9ZiZ7Pjp3efQa9qYy9A/5z8myzKzO/+L1HzFUHj96NT6eF2/DvPX58vkkWefDe0PvxMKB/ajPCDO4e3rsf+9ozz+wkS1fd529cNce+/5NMcVtZ2n7xj6XnY/MqxH04a27P6an4TvFmyTY2rzZP06203RR4GvV/FQSz/EDREKhfbrbXt+b7bLzOHweN+tcEYW68BW1PuzQ12WZdW2Vih8hMxwKHSPwfe3ubWfKRQOGDP0evB9n+a4IaPPY+jqB348fsQ1ZGuHQsn9qqyPxeCZ2rcpDp7piqj36iNNu3/mvPOEn5+/ZpfYWW+emLbPs00VsK2AUIeGNU/K5hpQcIPXI+DF63E92uEp4L9oBtpkz7FUx2v9LaZ+9cm1W7+f859Kjyn6rO3ptTzUMnIS77S73cC2N8Vt4P2dEPdtikMV4Mo8M3l+akNaE9j6IbPqF9qp62dC4e1iDkMDETNqv14orH+0XrNvqNOYxdDXpuGpGyJPI98fcbE1rRtA3xlyo//ZHt3rn3l29+87Mx2pq/dz/A3enGfzi9THZtL0cT8khhocjaRpF/ZylynetQNAwK8xPnRGursenPpbeiaURbR9vnbT+dv1uP6o6yx9x/nDaXMqfY5n6/tG6OGS1JcMtcmBz51WP78HntZnRQ+s6qGGoXbZs5xncKSwPHnDVhviypPJ8pPJDxdza0coHyOVg/sbCYW90cVmcKHof785Rg2VhULfjzbih6KMuabYmu/sm1q6HgOdk9W42O/p7KM523Rft/bnfmZUY+oNhc6xXz/6Hbmz3+7Zvbb6RIQ6X7ALrSls8K4r0ccsI4WDJxjTvTvq1zEf9tqjf+a8a47xieO5uh12HKNt32ioqEYVd3aAXSEgzNN3ON+9CWQ/KaEwbaRwsE2Omf0aO96YmZYp+ixYc1UeahhqUz2vJYXCul/ojeK1Yc+50MSeNYoYKfTSht5H+FQeCvsd5WDj1nmvGyxkQ4I6Q49p8Ezjktw4fZrjWB1CI4UpjaDG+tx/Bxqcasqht/i4bQj25jASKudcH6JPO2fUzQ0uTlGKqQAAIABJREFUqd71+TXFh7MdTwSTf/e1lk74tUewelOY2j1if8c2XNejYNcx7R09fJ57dpTwmTZ51CvO8cacTEzRZ6F6q/NQzWBACoTCzvRxEboqODPNlcHdEGdPSVvTw3c7FH6Z3FpjWOb157SzSNZ2gauP+xeYbCYUPjdSeL93z8J+zn82c4HJXIaOGzHwLWK2Gx+3cRlem9R/v++HEHsWO1Dn0ePUX58G32LkMndDnbUu5e1HCv101lU97d0Bv0YEN3cJw+Bvbcpv6RktQm2f73uOjlbFTtkr8Uhv5NNZwzfWTo30Fc9OHz81ijv1eCeNFEbos1C91XmoZux2Mb4LNkIjhWWeeS8CbEJh0+637ytPJjvszaENj83fL/3p5KbtbwcOTqYcWFPYri3MT1YofEw1v2QofJwBLd+grW9o30iKc5YrNlI41DE/UfdXHim8/5oq8DU/7npaORTsOtPHnqvi3jgUzurdGF+G/jbr8Tzp66G2b3S/vvZyy6HwEdbb409tP56a2n+yTb5HrCn01C9qTWGMPgvVW52HIghdxeu/7UsV0Ap7lK6mzOu1fU2Au13MIT911gP6LjQJXd1sB8nHa931he1awpvz38D3mkP79UPh1CtvlZGunafR6mjWX2fZnSaKWQflmcYIbd9uM/P08T1iTaFnSmzV+vR4rDEc/DH21hQ6wfAdQmHA210PTPVuhF/HfHj96HbEnt/apOPp/S2is793t429wtXF/T1V7YKt+ZRjWcsjjnahtdMx/UivbXHbm9ggNtIme44l5urjHvUFT74Ljh5XH0fqs1C91Xkogl54sm4g7Ya4x7b9Kd1mNNLeVzfwVe/Jx0JheTKPK567I4T/9d92GI07hrm1XygU+s68Hj+8SffoU0aKdvH3anTuRXb88Ac994w2pL/nM3tXNw9NzfjuUxg5itL7HM+x6guF1gUnh4u5tY1KYHFwxIUmmtcSzqWd7x6FfV9FXO3raVuCfh31Yf++cF2/TTwe928TR6eG74U3Pgo0eNeAJy+CWcwjUwYUYkNyqG2J1GO2e0jGjuL59hU72pjoPS0sEQqHbjpd2vcV7D19pD+tO/x5vpted0OnOypZet5XhT+7f+muY6xeT3uaSUh7nmiSCNrpZp6bV4d+fN17Wx2K/wyOJNrrXmLvvL9N7d4XDbeJWfJYtuQRTbXh+z1I8lDg/n1BvGsF60fc+W5pYwXDwVDYeXydO7rX3LKm//mdtZDWgIP9OVWQ9PVB9pKm+bQnFCaCdrqhPmi3HJpuvL/MsWzHI5pqw/ez2Y6HXg9C4UKigh6oD9qBHHgEUsFDurQnFAqICnqgPmgHcuARSAUP6dKeUCggKuiB+qAdyIFHIBU8pEt7QqGAqKAH6oN2IAcegVTwkC7tCYUCooIeqA/agRx4BFLBQ7q0JxQKiAp6oD5oB3LgEUgFD+nSnlAoICrogfqgHciBRyAVPKRLe0KhgKigB+qDdiAHHoFUUj3UuQH0IPaNnqubSftuRj3HM4W3AqFwIVFBD9QH7UAOMY/EPiYONs8coTDmCVHeZxB7HkdKKJyhKO8M2umG+qykXahTj+jsm+cBB59he/81veeBBx7vVT0Pd3vPg90Kos8+1kbMM4/vv8b3fO12u3YfQ+97XpPgs7QnbTNw/No8dK9C4eHweL7xrdh3w97tYg6HiyncUBh4TByhcIaivDNopxvqs5J2T4fCf+a8szugf+a8y0x2/HT2kZnjdfgYHuGSULgpj2jFc7y9k47rh8k83vw5/6lCmBUs3VD28OuzmlRh7nj8CJxIRWwzdvzaPHRvRgq/TXGwnlGcn9pg14S8dqSw85zi/vOKq2cNh6adXwtC4UKigh6oz0raJYwUuvyc/3Q6sOtxeCSk856fv2ZHKNyWR9zXmv8/f3Q6aze4VAHNP7LVG322P7e3/4BffMfb+Vt1AjPozc5n9U9+jueEoHxtgl4d/HwnTYPbRBy/Ng/drenj8mSy/GTyw8Xc7t+mOOxNcWv+65k+rnFHBhkpnKEo7wza6Yb6rKTdjKHwerRHCj/NMftjdrtAB3//tTq+5vMIhZvyiPtaM7pmjxZfu6Gq65H+iYRLFRKdKV17/7HH6wuvQ95ut3ECWOPZhNFT+2TJ1SNqm5VGbudbU1hdPNIGutvFHLKsnUp+hMJHUOz+vYJQOENR3hm00w31WUk77/qrQIgboNN5W/u1Rziqbep9OmGBUKjdIxNGCieFsU9zHKq77YvYMNTbrl7a0IRP13tj+2i3r0cJrxOOZezYfL4f2ybm+LV56G6Hwi+TZ5nJDhdzu/8a9wpjO/w9gt+XNbLob69iLmLZKoTChUQFPVCflbSbY6Tw+tEPkMEAUHWq/WnC8YtRQJlH3NeiQuHYyUcd4IIXf8SGQmcfU0faOtt41vc9GQr7I6P9qeDRbTY+UljmWX/t4GFvDlmz1tAaEawvPrmVzdrD7uhhw63YEwohXVTQA/VZSbvEUNgbIWzxrYUaWEPFSOH2POK+FhUKh2pc+aNzUjDLSGHE54zsozmJab37VDDzBV73yv2YbSKOX5uH7nUoLC5t+LvfLuaQn0xe/7t3ocn911Qh8GTywJRyA6EQZhEV9EB9VtIuNhR6poOvx9BtaPyvhwPkL6Fwix5xXxu9wMO3hs66it3z/v6awjlC4W979a7vyuLH1cf2Pj7N0fa67/WooOnxeExwdj9v7Pi1eej+uHm1vQ6wGwC/TJ7ZAdD+ex2M8wuhsIZQKCAq6IH6rKTd06HQd4+0/jrEoStN+59HKNTrEV+tP8x1Yijse8J3YYq1lOD4ITBSOPC9YqeHvSFt2L+hi0rs12K2iTp+bR66x9682hoJtG5J83gfawobCIUCooIeqA/agRx4RJaY2y9tHdFQ2Lkn4eNehH2YPm4gFAqICnqgPmgHcuARSarbL23m5t5Pgod0aU8oFBAV9EB90A7kwCOQCh7SpT2hUEBU0AP1QTuQA49AKnhIl/aEQgFRQQ/UB+1ADjwCqeAhXdoTCgVEBT1QH7QDOfAIpIKHdGlPKBQQFfRAfdAO5MAjkAoe0qU9oVBAVNAD9UE7kAOPQCp4SJf2hEIBUUEP1AftQI50j3y1jyOz/34r9iY7XMxNwXcEWWhndGlPKBQQFfRAfdAO5JjrEWU2h+LyePxY5+/fsxwz6IJ2Rpf2hEIBUUEP1AftQI4Uj7SjgeXJZPlX/ffqcWN5+Wvu5Ykg+AbQzujSnlAoICrogfqgHcjxtEduF3Owp4ebANgJiL+mzPuPHoPXgnZGl/aEQgFRQQ/UB+1AjiSPdJ5LO4IVFOG1oJ3RpT2hUEBU0AP1QTuQY3aPOCOF8PrQzujSnlAoICrogfqgHciRNH0cO0rIaOFLQzujS3tCoYCooAfqg3Ygh6hHGDV8C2hndGlPKBQQFfRAfdAO5EjxiO92NGG44ORVoZ3RpT2hUEBU0AP1QTuQYxaPlCeTeW5gzUjhe0A7o0t7QqGAqKAH6oN2IMd8HvE82YRQ+BbQzujSnlAoICrogfqgHcghcvWxNW2cl+t/R5CFdkaX9oRCAVFBD9QH7UAOPAKp4CFd2hMKBUQFPVAftAM58Aikgod0aU8oFBAV9EB90A7kwCOQCh7SpT2hUEBU0AP1QTuQA49AKnhIl/aEQgFRQQ/UB+1ADjwCqeAhXdoTCgVEBT1QH7QDOfAIpIKHdGlPKBQQFfRAfdAO5MAjkAoe0qU9oVBAVNAD9UE7kAOPQCp4SJf2hEIBUUEP1AftQA48AqngIV3aEwoFRAU9UB+0AznwCKSCh3RpTygUEBX0QH3QDuTAI5AKHtKlPaFQQFTQA/VBO5ADj0AqeEiX9oRCAVFBD9QH7UAOPAKp4CFd2hMKBUQFPVAftAM58Aikgod0aU8oFBAV9EB90A7kwCOQCh7SpT2hUEBU0AP1QTuQA49AKnhIl/aEQgFRQQ/UB+1ADjwCqeAhXdoTCgVEBT1QH7QDOfAIpIKHdGlPKBQQFfRAfdAO5MAjkAoe0qU9oVBAVNAD9UE7kAOPQCp4SJf2hEIBUUEP1AftQA48AqngIV3aEwoFRAU9UB+0AznwCKSCh3Rp34ZCAAAAAHgfgqFw7cS6VdBON9QH7UAOPAKp4CFd2hMKBUQFPVAftAM58Aikgod0aU8oFBAV9EB90A7kwCOQCh7SpT2hUEBU0AP1QTuQA49AKnhIl/aEQgFRQQ/UB+1ADjwCqeAhXdoTCgVEBT1QH7QDOfAIpIKHdGlPKBQQFfRAfdAO5MAjkAoe0qU9oVBAVNAD9UE7kAOPQCp4SJf2hEIBUUEP1AftQA48AqngIV3aEwoFRAU9UB+0AznwCKSCh3RpTygUEBX0QH3QDuTAI5AKHtKlPaFQQFTQA/VBO5ADj0AqeEiX9oRCAVFBD9QH7UAOPAKp4CFd2hMKBUQFPVAftAM58Aikgod0aU8oFBAV9EB90A7kwCOQCh7SpT2hUEBU0AP1QTuQA49AKnhIl/aEQgFRQQ/UB+1ADjwCqeAhXdoTCgVEBT1QH7QDOfAIpIKHdGlPKBQQFfRAfdAO5MAjkAoe0qU9oVBAVNAD9UE7kAOPQCp4SJf2hEIBUUEP1AftQA48AqngIV3aEwoFRAU9UB+0AznwCKSCh3RpTygUEBX0MHt9bhdzOFzMbWyb/Ou59ypiFu1uF3PIMpP1OJlyyn7KU/f9Pn3v36Y4+F6r/55lJi8D+46qy5fJne1uxT5wLEN8m+JwMmXweLcDHsEja3uozH3e8ZOXHp9kmcmyvclzp05OzeM/Z2+Km+Vt2w/ez/Z7/VbszaH4Hvls67Nm0p5QuLKhX4qfv2aX/THnHwXHIlUfQuEMen2Z3NfhBxvMoU7x0ZnbHfqt2Pc7g8AxlnnWNr7DOB1+KMyM1rjp8B+fP3R8msEjeESFhyZqdCv27bZl/ghWjyD2bYpDN3DF7t/eX3eftX97Pu16vfkc25/t587ch8iEwp+/ZpdlJss+zLX3+qc5ZpnJmqDgCw3XD5Nlmdmd/5nrMTPZ8dP7OUOvbd/QjU42Pj3nZubPfalQ+GXyyLPPhvaH3wmFA/tRHhAX7/DvvlEVd+TFbaz7jXezn1AnPmVkoarrfzqhogogl/pv/Y7jUHwPjH5F+GdD4BE8osJDgRqHCIXCIW+UeWYOh333pML2Ye3jot6fe9KR5V+dUPgImeFQ6B7DkGfn0n7GUFgFO/u1n/OfWpBAKKzfe7za//aFik9zVBY2ZjN0HYpbDSztXD1nReJzXyoUBhg8U/vudQydM0tGCmvCHf797o7KdDv8/ojN9A4//FkTvkvTuN8u5lB/lzIfGq1yfZI27aMFPIJHVHho7CTeN6Xfvr43xW3g/Z0Q9xjBLfPM5Pmp9Ubjp37IrPqFdur6mVAYOIFIDYiCofCPOZ8/nFGmf+a8y8zxbAWFTmioRqm6oaR6jzdc7v6aHwUGntfQ/u8b2q41g61FR//uSN/1GBoBnOFzvZ9hnQCMHoNV22z4M9arj4dJ08f9kBhqcDSyVoffnTqzOnzv1Etf40PxHdfhD01FZplx1/k8OhLn2JsGe0ItfaMTWwSP4BG9HrJec3QfHCksT15ftCGuPJksP9Wea8L7I8QP7m8kFPZGF5vBhaL//eYYNZQNhT9O0Lh+VB38jy8UVoHQF0r6ATA2wGzQ0FEja3Uws6bOO1PpzUitM7XuTrd3dJ3jc5t/+wLqT8Qx+N5//zXX47zT5mkNTkSo8zX0oTWFDd6OSx+zNdYja2iG6S/c79eovyYo1Li2uteddLhRdY/xy+RNR9B8p/bsvekUulOFQ8fwKmvE8AgeUeGhoTbV81pSKKz7hd4oXhv2nAtN7FmjiJHC4G+kE0I3EQp/6ynJD3NtRgmvzuvWVHNw7Zp3inmJ9XUrGPrqjq5G6OH+bez1dl+f5th81hKfO3YMC001yzY41ZRDr+G2OoLDSKjUvEZITjtfIzh9DWfWjsb6O3z/Gs/fdjqvCHXInlGgqgF/hI+qM/eN5FTfo1vX/vede20QHsEjW2UODw1qFQiFjxruTVEMjQhb08VtiMusKWlrevhuh8LKC80awzKvP6fnSX8otIPrdkNhMyV8/PCPStWhcHf+rEahAlOF9gjTz/mPygtMZjF0TDDyhmJrjWUwnPnMPRTYnvlc5/XgCUDoGOTD/nxXtvUb9/5aI6vTYqSw/a79hmvuUaB+0A53+I9px+FG1T7Gb1PkF3PzrF2LWxLg+b4b8QAewSNb8NDYhUG+CzZCI4VlnnkvAmxCYdPut+8rTyY77K11o83fL/3p5M460yZwhtcUtmsL85MVCmO8+bz2M4fCxxox78UjngDpDXztSJZv3aEu0gwdnkYP6Tusqf36UOCS/NzI0LelkcL7r6ka7ebHPXLvsF4H05+e2EJjP1dj3Z8C6zaCox3vYIfv29dX58w9NJ0fnLrzjAL5jsX73SaNell/24gn8Age0eihIUJX8fpv+1JpXtijdHYti8dFQ5VnTp31gL4LTUJXN9tB0lfzW7F/rCW8Of8d/U08r/3sofB+/zTH0Doz37becOIZcVTKXFcf+y6uqf4Ws6awH676t/D5Z847K6Slfq5nrWd1QhBeU+geg/41hS6PEYfBH2Ovg3GC4UYa92Ttgjf87XfS4bVTIx2+b4G5dbWnvx6Pz41fL9Y/lrQOvzvSvNWpQjyCR1b30Ag93ayLh9wQ99i2X49mNNLeVzfwVe/Jx0JheTKPK567I4T/9d+2z+OOYW7tBULhwOtDU53OiGEz4qj1ApNZDe2bavVcbON9bUD/3pXB7qhsyufef417n8Pd8aN3LGPH0Htd5dXH1vTT4WJubaMSmN6KuNBkC417kna3izkE77bvNoYDV1mOXO3d7yidReAD9Zijw4+fGrS3qb9vPYVU3eZimxcV4BE8sqqHIhg+oXh4qxq9c58+MvUG4r6bXvcvLOpfYNJ9X+Ub5yImax1j9Xr61ek80UQAtNPNPDevHuq47HUr/xkcSbQ7iC007s9rN96BdTrLXofeXQMW7pS7T32433/9I08TOvzOcfk67uhRIPs7DKyNa04wNnT/SjyCR3R46Hf6DcC9awXrR9z59LWC4WAo7Ny6yB3ds648dz6j5/F6P/bnDF+wxGPu1IF2uqE+aAdy4BFIBQ/p0p5QKCAq6IH6oB3IgUcgFTykS3tCoYCooAfqg3YgBx6BVPCQLu0JhQKigh6oD9qBHHgEUsFDurQnFAqICnqgPmgHcuARSAUP6dKeUCggKuiB+qAdyIFHIBU8pEt7QqGAqKAH6oN2IAcegVTwkC7tCYUCooIeqA/agRx4BFJJ9dDYc497NwS//5qh+2S+6pNjYrUnFAqICnqgPmgHcuARSGWOUBjzMADv4+YmP8XmtSAULiRqNPXzhxuO1/W/z6uBt9EO5MAjkMocofBweDzK7lbsu2Gvfgxi0XtUov+JIITCGYryziRrN/bsaFi3Pm8M2sEYeARSmWek8PE4wzLPTJ4/ni/fhLx2pLDzSLr+o+ma5xP7p51fC0LhQqJOwg2Fzb/Pw6OIP+c/XePu/pofBXpoA2+jHciBRyCV2aaPy5PJ8lP97OlvUxyaZw5Xoa43fVzjjgwyUjhDUd4ZmVCYmez4+djm+mGy7MNc639fj/0QeD0+XocZ6/PGoB2MgUcglfnWFFYXj7SB7nYxhyxrp5IfofARFLt/ryAUzlCUd0ZspPAnsA3TzcvW541BOxgDj0Aq84XCL5NnmckOF3O7/xr3CmM7/D2C35c1sui/ajnmIpatQihcSNRJPBUKGRVcrD5vDNrBGHgEUpkrFJZ51l87eNibQ9asNbRGBOuLT25ls/awO3rYcCv2hEJIF3USjBTqrs8bg3YwBh6BVGYJhcWlDX/328Uc8pPJ63/3LjS5/5oqBJ5MHphSbiAUwiyiTmJqKLxHrCms1yVyixu8jXYgCR6BVOa6ebW9DrAbAL9MntkB0P57PU2cXwiFNYRCAVGj8d2nMCIU3u91MAxdfUwonKc+bw7awRh4BFJZ5ubV1kigdUuax/tYU9hAKBQQFfRAfdAO5MAjkIpoKOzck/BxL8I+TB83EAoFRAU9UB+0AznwCKSCh3RpTygUEBX0QH3QDuTAI5AKHtKlPaFQQFTQA/VBO5ADj0AqeEiX9oRCAVFBD9QH7UAOPAKp4CFd2hMKBUQFPVAftAM58Aikgod0aU8oFBAV9EB90A7kwCOQCh7SpT2hUEBU0AP1QTuQA49AKnhIl/aEQgFRQQ/UB+1ADjwCqeAhXdoTCgVEBT1QH7QDOfAIpIKHdGlPKBQQFfRAfdAO5MAjkAoe0qU9oVBAVNAD9UE7kAOPQCp4SJf2hEIBUUEP1AftQA48AqngIV3aEwoFRAU9UB+0AznwCKSCh3RpTygUEBX0QH3QDuTAI5AKHtKlPaFQQFTQA/VBO5ADj0AqeEiX9oRCAVFBD9QH7UAOPAKp4CFd2hMKBUQFPVAftAM58Aikgod0aU8oFBAV9EB90A7kwCOQCh7SpT2hUEBU0AP1QTuQA49AKnhIl/aEQgFRQQ/UB+1ADjwCqeAhXdoTCgVEBT1QH7QDOfAIpIKHdGlPKBQQFfRAfdAO5MAjkAoe0qV9GwoBAAAA4H0IhsK1E+tWQTvdUB+0AznwCKSCh3RpTygUEBX0QH3QDuTAI5AKHtKlPaFQQFTQA/VBO5ADj0AqeEiX9oRCAVFBD9QH7UAOPAKp4CFd2hMKBUQFPVAftAM58Aikgod0aU8oFBAV9EB90A7kwCOQCh7SpT2hUEBU0AP1QTuQA49AKnhIl/aEQgFRQQ/UB+1ADjwCqeAhXdoTCgVEBT1QH7QDOfAIpIKHdGlPKBQQFfRAfdAO5MAjkAoe0qU9oVBAVNAD9UE7kAOPQCp4SJf2hEIBUUEP1AftQA48AqngIV3aEwoFRAU9UB+0AznwCKSCh3RpTygUEBX0QH3QDuTAI5AKHtKlPaFQQFTQA/VBO5ADj0AqeEiX9oRCAVFBD9QH7UAOPAKp4CFd2hMKBUQFPVAftAM58Aikgod0aU8oFBAV9EB90A7kwCOQCh7SpT2hUEBU0AP1QTuQA49AKnhIl/aEQgFRQQ/UB+1ADjwCqeAhXdoTCgVEBT1QH7QDOfAIpIKHdGlPKBQQFfRAfdAO5MAjkAoe0qU9oVBAVNDD7PW5XczhcDG3sW3yr+feqwi8DWPgEUhldQ+VJ5Nl2QROprTf77b3TTt/u5hDtjfF7bFtmQf22ekXvk1x6L5vSe0JhQKiquHnr9llf8z5R8GxvEp9CIU6mOrtse35rbyeR7SC1zqo9FB5coKay7cpDr6AtzdFabfzXya3gmGZe8Ke0y+UeWYOxfdq2s8QCj/NsSeMZfifv2aXZSbLPsw1+N5q++sxM9nx0/s57Wvt/rocr+uYR1S7VGh8EurzZfJJZ4/WD7kTCgf2ozwgbsXbUe3GhP3Jaepq4msTY/hnzjtrPzHfT6VHHvyc/5gsy8zu/C9hG5/nntV4zn2t4bXtkOShwTzgq2GXoJdGQ6FFbxDgy+SB9w6PFFZBc6lAGNJ+tlBoh7Lqx1v/gKyiuQVofuRtZxH8sXya48A2nc/bkqHHtEuFxmfhkcL+2WNexr5XH5vxdky7MWV/InpWQc5uA3/Of0y2+2t+kvZTB8SVguE8v6/aK8ePAT1Gtrl+eAcHfs5/BoOmlzn3tYrXtkV6KIzMA1N0HwmFt2I/ccq5GiEcGiks8tDAwrLai4RCb4N9/nAKVTVmx7NdqH7D2Ra5aQh8hV3xRyaqXf236zF8tvoI1qFR2vdufNadPg5NMVgs8MNfR7slvf1cu9H97P5I5tCx9UbrRsOdR4+r2yZG8PPX7Nz3PLMfFR6xjn/31/z4NIraxl//54jd11j9B153vVgPnMxz/Ntj7lAY7Pcmh8K9OYy20b71f18md9cd1rzJmsL+j/R6zDyNsfNja37kTqH6Z8/O+0JnBps8Ux7R7t6f/hobXeiP0hIKn39/RKjzNRpjZ3nlSXUYnEe7Zb09td1wj8X7evDY+qNzMdPU7jFej08EAV8A3OxJcV+HkI6D28z5/aP2NVb/kdd7gybrLX/SgMhIoe+3ODUUZidTtst/PBeXBJcRfZni0GzfXVPYeb93cKHqczozTAtrL7KmsNPQ2YVoG7R6lPDqKZT331Yj+OJrCoPadd4zMCpg60UonGckIxjiqgaj9wNuG4y9OYyEyiXXjyyr3cLejmo3BqabR6ejrWN7drai13Y9M7pX6drR8vrRG+Xchkci6hazzZwjpTH7esY/3tcHRkbfCLk1hRF1C+FMHzfTxb3lQNnJlJ6RvWaa+Fbs2zZ+dMo5v7zmmsLhM3DPupDQtE6d9Hup31fYzTaKMdr5DGR/V2eawu5sCIWzTR/71oL0rxKzLiphpHBxb0e3G2PBY+zYfO8fXb/Yf/3pNZbu8e3+eI5nCx6JGOGN2WbpkcKx+ke9Hrvs4PWZffo4lAeS1xS6VxL7w11eVgEwL5rQ+NiHHRI7n5V/mXt5sl77tkYbl9VeYPrYOZP1TfPY2weL+mGukeuSJi0o12ToKO2GGnvPqAEjhTPWx8ZuEOpp5VCw60wfe9aHvGEoXMTbse1G1EjO2IjlxJFCwbXQ210+4wv9bliK2cbjlUTfDu5rlpHCzByv9Xd782A4eygM5YEZLzTpEmjjPbNIwdFCpz9Y6rY0C19oEpgevn+a49CiW3ufvivNXvzqY3eNSX+NzT9z3oU7RtYUzlkfl8caw8EfbG9NodNovGUo/F3A27HtRmA0amBNYefYnlpTWE+nu+sUO+3WE+HGOyoyZ0gS9EgofMcEdLf+9RXDvouNHn+L1GV0XzOuKfT44t3Y4tXHXbprz/OyGUW0BxHq/3ennIt+X1DmIzNNwtrLhMK7NSIpcd/gAAAKBUlEQVT4f544g7be3/sBe6d21gs+otrZnaf9fe0GpG7A2nVbxw9GCmerT4P1oz9czK29A35geD/iQhPNawnn0W4dbw+3G87JaW/fI1cn90Kib9RqXJPgmsLYtXEdXTzbL3g1copHYu4vOekelL6+wa7LFF3G9jXn1ceNL950xHD+NYWBPm/OUNi70MSZVq6ng6twV9238P8We2ufVlBstxuZgVpIe55oIiAq6GGem1eHbg/QvTH1ofjP4EiivQZlqavL1tEOnuGpq5EF9xPDljyypC4Qj0oPPTl97E77NtPFvr919x+4aHEF7QmFAqKCHqgP2m2DudZFL7u+ejseWW/dOQyzHQ+9HoTChUQFPVAftAM58Aikgod0aU8oFBAV9EB90A7kwCOQCh7SpT2hUEBU0AP1QTuQA49AKnhIl/aEQgFRQQ/UB+1ADjwCqeAhXdoTCgVEBT1QH7QDOfAIpIKHdGlPKBQQFfRAfdAO5MAjkAoe0qU9oVBAVNAD9UE7kAOPQCrJHrpdzMG+51/7cAEX+WcJbw1C4UKivgUbeVrK29YH7WABVHpkI22Tuu809vxmIebw0K3YP24Q7X2M6JfJCYVR2hMKBUSNpn1Ez8DD06P3s3AjuJGGF28r0C7olWceFQeamMcj7uP/Ao/vi2WVtsn3HWY8hqmPddyMbmkeap8O0tB5vFz1hJHqKSGEwljtCYUCokZT/wh3zsPTCYVK6vPmJGvXeS5p3yvdZ9fWATHwnFvQSbJH6uc4+56R/XTQWTEU2t+jCmwzPYPa+53qzzx+zHNCtcFQ+KB6bnBe/hIKE7UnFAqIGk37I3QeweT5cV6PobNoZ7SlGXG5fgw/DL73cPiIB7ifPx6f7x5jHQDahvz60T+mrdXnzZEdKex3on1PgnbSPFK1OePhb3xEuds+9k9Cwu1nRTPi9nx75fHzpHbccwwjfcK9bePjPnv8eKzP7G0rN6o/SztTnrzTx4TC6doTCgVEjcb64f2c/zx+aM4Psjui4mzr2b6iGzSbH3/TcPyc/wyO0nQ+sxnxCY1m1q+3jZK3QVmns8fbCrSL7KC2MvoMD+Zq/8LbjbRNzb8H2sOx9rP3/vuvuR6ntlf9YObud7Qdd+iMNAYCXROo3X3H/L4GdetsO16D1Tx0/60uNKnDKiOF6doTCgVEjabzw7MaldEFv5/maJ9lerepfshVI1Vvf/1of8jX41CIiziGzihnxFnqFuvz5hAKQdQjMSPDSW1T4HW7/ZzNc/01hZ0R0Jh23PvdA8fp/fdIn/CsbsK/1bR25svkh4sp8r0pbr+mzPemKJpQ+G2KQ/V3QmG89oRCAVGjcX9YzXSAZxSuf3n9yNTC3RoNbMNg0wj5pqvdxsnaJtgohKcS3KmQWRZCL12fN4dQCKIeial3VNvkvD6l/fTu/xm6J8f+UbiRdty3FCgQCvujjM5UfFToG9NtSCOnD1nLQ+XlEQZvzd/qUNiOIJ5MSSiM1p5QKCBqNIF1G7vjx8gPcmw/1t93f8352G2sjufq74PTz1Fnipk5XuuGbGiNyYqdPd5WoB1rCl+WNI9UHhg8YZxlxGtsNG6+kcKHn53vNtqOe7QIjhT6wqNzgv42I4UVnVBYcyv2JjvszYEwOEl7QqGAqNGEFg87Z5D99RvuGj1PB2v9vX+BiW9/Y2sKhxqF+nOa7a8fEVMnG6jPmyN9SxquPt4+c1197AbDx9XHY+vZ+herVLMU8e3n+JrCiPAavNjDGT0MHYfnNxJcUxgKmKHlSPb3dIJlULctrSm8e0JheTJZtjfFrTtC+FhjCCHtCYUCokYz1FmOXSXm/CA707UDi5vDATLi6uPBM8U6GFpXw9nH2/+8DdTnzZn3ljQRV85zn8LNMcvvy+cTz9Ro2Cfd9qYz01JvM9Z+9l4funODF3+72rTLnWAYOg7njg3V9+iHwqFA1nnN2d/xHGizfbpt7OpjOxQ29y7sX2BirzGEkPaEQgFRQQ/UB+1AjnfwiH2VL8zPfKGwuldhZj/y7l6NDrZh1nnt3SEULiQq6IH6oB3I8foeme+CCvDz+h7SC6FwIVFBD9QH7UAOPAKp4CFd2hMKBUQFPVAftAM58Aikgod0aU8oFBAV9EB90A7kwCOQCh7SpT2hUEBU0AP1QTuQA49AKnhIl/aEQgFRQQ/UB+1ADjwCqeAhXdoTCgVEBT1QH7QDOfAIpIKHdGlPKBQQFfRAfdAO5MAjkAoe0qU9oVBAVNAD9UE7kAOPQCp4SJf2hEIBUUEP1AftQI7NeWTF57CDn8156IUgFC4kajTusylXej7wK4O30Q7kkHj2uyiEQnXQzujSnlAoIOokaKR01+eNQTsYg1AIqdDO6NKeUCgg6iTcRqr593l4FPHn/Kfzerb7a34U6KENvI12IIdsKPxnzruBNs6Zaem8HnrN85nXo7Vd9mGuqZ8By3kIZteeUCgg6iS8oTAz2fHzsc31o9NYXY/9Buh6dBozmKc+bwzawRhyobAOhFY7eD1a/+6995857+o2cMJrnX3e65PtYICM/AxYzkMwu/aEQgFRJxEaKfwJbMP0x7L1eWPQDsYQC4Up7WDsa97tPs0xCwW/yM+A5TwEs2tPKBQQdRJPhULOSBerzxuDdjCGbCh027lPc7S2d5fQ7M7/2m2Dr/Xa0qw7BZxlJkv9DFjOQzC79oRCAVEnwUih7vq8MWgHY6w2UvjsvlJOsBk51OchmF17QqGAqJOYGgrvEWsK6zNgbnGDt9EOJFltTeH1ozsyZ+9r6LWRNYWdtYHPfoaCumwJ2hld2hMKBUSNxnefwsgz5O4Vc05IJBTOU583B+1gjPRQ6Ju+bU5wh64+/jRH532P9m7gtZi2tA2JT34GLOchmF17QqGAqKAH6oN2IAcegVTwkC7tCYUCooIeqA/agRx4BFLBQ7q0JxQKiAp6oD5oB3LgEUgFD+nSnlAoICrogfqgHciBRyAVPKRLe0KhgKigB+qDdiAHHoFU8JAu7QmFAqKCHqgP2oEceARSwUO6tCcUCogKeqA+aAdy4BFIBQ/p0p5QKCAq6IH6oB3IgUcgFTykS3tCoYCooAfqg3YgBx6BVPCQLu0JhQKigh6oD9qBHHgEUsFDurQnFAqICnqgPmgHcuARSAUP6dKeUCggKuiB+qAdyIFHIBU8pEt7QqGAqKAH6oN2IAcegVTwkC7tCYUCooIeqA/agRx4BFLBQ7q0JxQKiAp6oD5oB3LgEUgFD+nSnlAoICrogfqgHciBRyAVPKRLe0KhgKigB+qDdiAHHoFU8JAu7QmFAqKCHqgP2oEceARSwUO6tCcUCogKeqA+aAdy4BFIBQ/p0p5QKCAq6IH6oB3IgUcgFTykS3tCoYCooAfqg3YgBx6BVPCQLu0JhQKigh6oD9qBHHgEUsFDurT/f190dZEmTf5JAAAAAElFTkSuQmCC;" vertex="1" parent="1">
          <mxGeometry x="-729.3" y="880" width="558.59" height="530" as="geometry" />
        </mxCell>
        <mxCell id="JGfc-qZrsNJnJbXg5H5I-38" value="封装格式" style="whiteSpace=wrap;html=1;shape=mxgraph.basic.rectCallout;dx=32.71;dy=13;boundedLbl=1;rounded=1;shadow=0;sketch=1;fontSize=20;align=center;verticalAlign=middle;fillColor=#ffcd28;strokeColor=#d79b00;gradientColor=#ffa500;" vertex="1" parent="1">
          <mxGeometry x="-360.71" y="830" width="190" height="60" as="geometry" />
        </mxCell>
        <mxCell id="JGfc-qZrsNJnJbXg5H5I-39" value="传输RTP(UDP/TCP)" style="rounded=0;whiteSpace=wrap;html=1;fontSize=18;strokeWidth=3;fillColor=#fff2cc;strokeColor=#d6b656;" vertex="1" parent="1">
          <mxGeometry x="138.5" y="355" width="250" height="60" as="geometry" />
        </mxCell>
        <mxCell id="JGfc-qZrsNJnJbXg5H5I-22" value="&lt;div&gt;RTSP交互协商&lt;/div&gt;&lt;div&gt;RTP的数据端口（奇数端口）&lt;/div&gt;&lt;div&gt;RTCP数据控制端口（偶数端口）&lt;/div&gt;&lt;div&gt;一般为连续的两个端口&lt;br&gt;&lt;/div&gt;" style="text;html=1;strokeColor=#d6b656;fillColor=#fff2cc;align=center;verticalAlign=middle;whiteSpace=wrap;rounded=0;fontSize=18;" vertex="1" parent="1">
          <mxGeometry x="114" y="422.5" width="300" height="105" as="geometry" />
        </mxCell>
        <mxCell id="JGfc-qZrsNJnJbXg5H5I-40" value="" style="shape=flexArrow;endArrow=none;html=1;fontSize=18;exitX=1;exitY=0.389;exitDx=0;exitDy=0;exitPerimeter=0;fillColor=#008a00;strokeColor=#005700;strokeWidth=2;" edge="1" parent="1" source="JGfc-qZrsNJnJbXg5H5I-4" target="JGfc-qZrsNJnJbXg5H5I-22">
          <mxGeometry width="50" height="50" relative="1" as="geometry">
            <mxPoint x="60" y="476.9850000000001" as="sourcePoint" />
            <mxPoint x="478" y="477" as="targetPoint" />
          </mxGeometry>
        </mxCell>
      </root>
    </mxGraphModel>
  </diagram>
</mxfile>
